<svg xmlns="http://www.w3.org/2000/svg" viewBox="0 0 428.96 137.95"><defs><style>.cls-1{fill:#ffcdd2;}</style></defs><title>Asset 1</title><g id="Layer_2" data-name="Layer 2"><g id="Layer_1-2" data-name="Layer 1"><path class="cls-1" d="M98.95,28.21a39.67,39.67,0,1,0,39.82,39.67C138.77,45.4,121.12,28.21,98.95,28.21Zm0,63.5c-13.27,0-23.53-10.11-23.53-23.83S85.67,44,98.95,44s23.53,10.11,23.53,23.83S112.22,91.7,98.95,91.7Z"/><path class="cls-1" d="M389.14,28.45A39.67,39.67,0,1,0,429,68.11C429,45.64,411.31,28.45,389.14,28.45Zm0,63.5c-13.27,0-23.53-10.11-23.53-23.83s10.26-23.83,23.53-23.83,23.53,10.11,23.53,23.83S402.41,91.95,389.14,91.95Z"/><rect class="cls-1" width="16.29" height="105.58"/><polygon class="cls-1" points="65.46 30.17 45.55 30.17 21.12 58 21.12 76.18 47.21 105.58 66.67 105.58 32.28 67.12 65.46 30.17"/><path class="cls-1" d="M227.61,28.21c-10.11,0-18.1,4.07-23.08,11.92-4.37-7.54-11.61-11.92-21.42-11.92-6.7,0-12.38,1.87-16.85,5.64V48.49a15.65,15.65,0,0,1,12-5.05c8.9,0,14.18,5.88,14.18,16.44v45.7h16.29V63.35c0-13.72,6.79-19.91,16.44-19.91,8.9,0,14.63,5.88,14.63,16.44v45.7h16.29V58.82C256.11,40,244.65,28.21,227.61,28.21Z"/><path class="cls-1" d="M326.85,67.36c0,13.57-10.26,23.68-24,23.68s-24-10.11-24-23.68,10.26-23.68,24-23.68a23.71,23.71,0,0,1,19.22,9.16V36.2c-5.48-4.91-12.71-7.75-21.48-7.75-21.27,0-38,17.35-38,38.91s16.74,38.91,38,38.91c11.61,0,20.51-5,26.24-13.12v9.2c0,13.12-8.45,20.81-22.47,20.81-13.12,0-18.7-5.13-22-11.61l-14,8.15c6.33,12.07,19.15,18.25,35.75,18.25,19.76,0,38.76-11.31,38.76-35.59V30.41h-16Z"/><polygon class="cls-1" points="145.25 30.17 145.25 105.58 161.67 105.58 161.67 30.17 161.54 30.17 145.25 30.17"/></g></g></svg>