<?xml version="1.0" encoding="UTF-8"?>
<svg width="100%" height="100%" viewBox="0 0 77 84" version="1.1" xmlns="http://www.w3.org/2000/svg" xmlns:xlink="http://www.w3.org/1999/xlink">
    <!-- Generator: Sketch 51 (57462) - http://www.bohemiancoding.com/sketch -->
    <title>Logo</title>
    <desc>Created with Sketch.</desc>
    <defs>
        <polygon id="path-1" points="0.176581295 0.104023511 4.57842302 0.104023511 4.57842302 5.21159875 0.176581295 5.21159875"></polygon>
        <polygon id="path-3" points="0.142332465 0.0367417712 66.4444017 0.0367417712 66.4444017 64.8329659 0.142332465 64.8329659"></polygon>
    </defs>
    <g id="Page-1" stroke="none" stroke-width="1" fill="none" fill-rule="evenodd">
        <g id="adhara_single_page_final_1366px" transform="translate(-266.000000, -80.000000)">
            <g id="Header" transform="translate(266.000000, 76.000000)">
                <g id="Logo" transform="translate(0.000000, 4.000000)">
                    <path d="M2.44052741,78 L0,84 L1.11145038,84 L1.5777932,82.8685714 L4.42248439,82.8685714 L4.88105482,84 L6,84 L3.55975017,78 L2.44052741,78 Z M3.00013879,79.26 L4.01054823,81.8142857 L1.98972935,81.8142857 L3.00013879,79.26 Z" id="Fill-1" fill="#FFFFFF"></path>
                    <g id="Group-16" transform="translate(5.000000, 0.000000)">
                        <path d="M12.5275079,82.1910815 L11.4832489,82.1910815 L11.4832489,78.9223668 L12.5275079,78.9223668 C13.6297813,78.9223668 14.0938964,79.7176567 14.1156518,80.5129467 C14.1374072,81.3447179 13.6805439,82.1910815 12.5275079,82.1910815 M12.5275079,78.010337 L10.5332633,78.010337 L10.5332633,83.1177038 L12.5275079,83.1177038 C14.3041986,83.1177038 15.0873928,81.8116771 15.0656374,80.5202429 C15.043882,79.2579937 14.2679396,78.010337 12.5275079,78.010337" id="Fill-2" fill="#FFFFFF"></path>
                        <g id="Group-6" transform="translate(24.345324, 77.913401)">
                            <mask id="mask-2" fill="white">
                                <use xlink:href="#path-1"></use>
                            </mask>
                            <g id="Clip-5"></g>
                            <polygon id="Fill-4" fill="#FFFFFF" mask="url(#mask-2)" points="3.62843741 2.25667437 1.13381871 2.25667437 1.13381871 0.104023511 0.176581295 0.104023511 0.176581295 5.21165086 1.13381871 5.21165086 1.13381871 3.14681544 3.62843741 3.14681544 3.62843741 5.21165086 4.57842302 5.21165086 4.57842302 0.104023511 3.62843741 0.104023511"></polygon>
                        </g>
                        <path d="M39.9755655,81.257163 L40.9182993,79.0826234 L41.8607741,81.257163 L39.9755655,81.257163 Z M40.3961698,78.010337 L38.119105,83.1177038 L39.1561122,83.1177038 L39.5912201,82.1543397 L42.2453784,82.1543397 L42.6729755,83.1177038 L43.7172345,83.1177038 L41.4401698,78.010337 L40.3961698,78.010337 Z" id="Fill-7" fill="#FFFFFF"></path>
                        <path d="M53.9224835,80.5421056 L53.9224835,78.9077482 L55.380095,78.9077482 C55.9819942,78.9077482 56.2503108,79.3163376 56.2503108,79.7249269 C56.2503108,80.1335163 55.989246,80.5421056 55.380095,80.5421056 L53.9224835,80.5421056 Z M57.2078072,79.7030382 C57.2078072,78.8201934 56.5766417,78.0176072 55.380095,78.0103109 C54.5754043,78.0103109 53.7701957,78.0030147 52.965505,78.0030147 L52.965505,83.1176777 L53.9224835,83.1176777 L53.9224835,81.410358 L54.8437209,81.410358 L56.3230878,83.1176777 L57.4613612,83.1176777 L57.4613612,83.0520116 L55.9242388,81.30795 C56.8884691,81.1112122 57.2078072,80.4034771 57.2078072,79.7030382 Z" id="Fill-9" fill="#FFFFFF"></path>
                        <path d="M68.0029381,81.257163 L68.9456719,79.0826234 L69.8881468,81.257163 L68.0029381,81.257163 Z M69.4675424,78.010337 L68.4235424,78.010337 L66.1464777,83.1177038 L67.1834849,83.1177038 L67.6185928,82.1543397 L70.2727511,82.1543397 L70.7003482,83.1177038 L71.7446072,83.1177038 L69.4675424,78.010337 Z" id="Fill-11" fill="#FFFFFF"></path>
                        <g id="Group-15">
                            <mask id="mask-4" fill="white">
                                <use xlink:href="#path-3"></use>
                            </mask>
                            <g id="Clip-14"></g>
                            <path d="M33.9673986,0.688087382 C33.518046,-0.181467868 32.7858734,-0.180425549 32.3393698,0.691214342 L0.318535252,63.2478582 C-0.127968345,64.1200192 0.303772662,64.8329659 1.27862158,64.8329659 L10.7587942,64.8329659 C11.7331252,64.8329659 12.8892691,64.1163711 13.3274849,63.2408225 L32.3360029,25.2967355 C32.7742187,24.4209263 33.4921468,24.4209263 33.9308806,25.2967355 L46.9973266,51.3797449 C47.4360604,52.2558147 46.9973266,52.9698037 46.0235137,52.9679796 L32.2632259,52.9377524 C31.289154,52.9354071 30.1267942,53.6467904 29.6805496,54.5179091 L25.2434849,63.1874036 C24.7972403,64.0585223 25.2294993,64.7730325 26.2035712,64.774596 L51.9567799,64.8139436 C52.9311108,64.8152465 53.7301036,64.8196763 53.7321755,64.8246274 C53.7347655,64.8287966 54.5334993,64.8329659 55.5080892,64.8329659 L65.3112259,64.8329659 C66.2855568,64.8329659 66.7154849,64.1213221 66.2661324,63.2507245 L33.9673986,0.688087382 Z" id="Fill-13" fill="#FFFFFF" mask="url(#mask-4)"></path>
                        </g>
                    </g>
                </g>
            </g>
        </g>
    </g>
</svg>
